PathFileType	4	(X/Y/Z)	C:\Users\xlb\Desktop\20210112\20210112\bx_n_10_902.trc
DataRate	CameraRate	NumFrames	NumMarkers	Units	OrigDataRate	OrigDataStartFrame	OrigNumFrames
50.00	50.00	       4	43	mm	50.00	182	       484
Frame#	Time	Top.Head			R.Acromium			L.Acromium			Sternum			R.ASIS			L.ASIS			V.Sacral			R.Thigh.Upper			R.Thigh.Front			R.Thigh.Rear			R.Knee.Lat			R.Knee.Med			R.Shank.Upper			R.Shank.Front			R.Shank.Rear			R.Ankle.Lat			R.Midfoot.Lat			R.Toe.Lat			R.Toe.Tip			R.Toe.Med			R.Ankle.Med			R.Midfoot.Sup			R.Heel			L.Thigh.Upper			L.Thigh.Front			L.Thigh.Rear			L.Knee.Lat			L.Knee.Med			L.Shank.Upper			L.Shank.Front			L.Shank.Rear			L.Ankle.Lat			L.Midfoot.Lat			L.Toe.Lat			L.Toe.Tip			L.Toe.Med			L.Ankle.Med			L.Midfoot.Sup			L.Heel			origin1 front left			origin2 front right			origin 3 back right			origin 4 back leftt			
		X1	Y1	Z1	X2	Y2	Z2	X3	Y3	Z3	X4	Y4	Z4	X5	Y5	Z5	X6	Y6	Z6	X7	Y7	Z7	X8	Y8	Z8	X9	Y9	Z9	X10	Y10	Z10	X11	Y11	Z11	X12	Y12	Z12	X13	Y13	Z13	X14	Y14	Z14	X15	Y15	Z15	X16	Y16	Z16	X17	Y17	Z17	X18	Y18	Z18	X19	Y19	Z19	X20	Y20	Z20	X21	Y21	Z21	X22	Y22	Z22	X23	Y23	Z23	X24	Y24	Z24	X25	Y25	Z25	X26	Y26	Z26	X27	Y27	Z27	X28	Y28	Z28	X29	Y29	Z29	X30	Y30	Z30	X31	Y31	Z31	X32	Y32	Z32	X33	Y33	Z33	X34	Y34	Z34	X35	Y35	Z35	X36	Y36	Z36	X37	Y37	Z37	X38	Y38	Z38	X39	Y39	Z39	X40	Y40	Z40	X41	Y41	Z41	X42	Y42	Z42	X43	Y43	Z43	

182	3.620	-552.31165	92.39719	1792.71350	-586.92816	-81.97058	1489.60840	-571.45117	270.58386	1501.32251	-564.35236	92.39046	1290.37317	-687.33130	-14.36906	1049.53003	-697.08044	233.12033	1063.14929	-889.44159	86.17931	1067.91528	-757.28149	-74.59084	874.87433	-668.56384	-19.97341	811.67657	-764.43097	-63.26189	757.71637	-761.20172	-37.06959	616.56305	-733.02362	70.79941	572.60529	-762.35144	-33.66893	567.81976	-701.47894	13.24442	525.09137	-795.30420	-44.44721	483.77420	-760.39301	-17.50412	205.31313	-649.62030	-68.99300	160.53494	-607.32764	-76.67384	156.92224	-547.50513	-29.75213	162.96228	-596.45917	23.76448	169.28192	-717.23425	68.98634	219.70374	-669.60010	52.69044	161.81938	-790.36865	42.19239	172.78085	-782.31891	275.05615	876.22864	-671.76392	213.50864	821.32513	-776.52063	267.73621	744.38861	-792.34650	251.02042	639.94513	-748.26086	145.06906	575.09735	-785.99445	248.87750	573.85052	-726.66925	207.77351	538.83722	-814.91724	260.26468	495.89194	-770.87451	231.28412	203.01328	-658.62292	299.08865	157.42455	-622.26477	307.15479	158.18398	-556.40717	254.99274	164.53960	-593.05078	220.43149	174.57193	-716.31305	158.00562	220.94783	-675.35718	174.99683	162.23425	-796.90540	182.33925	181.26959	-528.01300	304.02432	146.57684	-517.71014	-72.94335	143.40088	-875.90741	-78.60109	141.27437	-882.38721	296.22144	144.74455	
183	3.640	-562.60352	92.15550	1799.17163	-593.85840	-82.08612	1495.84363	-577.72083	270.53479	1507.19189	-564.93860	92.28569	1296.51355	-683.27655	-14.52389	1050.96216	-691.31140	233.46667	1064.06030	-884.28320	87.25368	1067.39954	-752.03149	-74.17576	875.48309	-663.58020	-19.45327	811.74738	-759.82800	-62.64191	758.35931	-757.83875	-36.44024	616.97253	-729.59680	71.32567	572.85608	-759.19934	-33.04796	568.25696	-698.65875	13.69936	525.09070	-792.76471	-43.87398	484.40530	-759.99536	-17.20055	205.66127	-649.56561	-68.88824	160.59590	-607.34216	-76.65305	156.94484	-547.30981	-29.70351	162.85275	-596.35730	23.94185	169.14647	-716.98407	69.24424	219.35701	-669.45660	52.86376	161.65154	-790.19983	42.49370	173.00639	-776.18091	275.48120	876.50513	-665.99341	214.04405	821.19421	-771.57098	267.94214	744.71747	-788.29962	251.21063	640.37720	-744.80121	145.26924	575.37543	-782.49878	249.11058	574.31104	-723.63208	207.90796	538.73596	-812.07355	260.33041	496.45029	-770.47754	231.10974	203.13718	-658.60168	299.09976	157.41255	-622.20770	307.16617	158.17773	-556.22760	255.10838	164.47646	-592.70300	220.28012	174.38377	-715.94720	157.69958	220.67484	-675.17432	174.96829	162.03250	-796.75281	182.20341	181.55934	-528.03638	304.06915	146.55528	-517.76263	-72.99716	143.30855	-875.88831	-78.56019	141.27620	-882.44586	296.18033	144.73810	
184	3.660	-572.57782	92.02190	1805.03857	-600.62347	-82.12903	1501.59692	-583.86218	270.53839	1512.42273	-565.57898	92.20873	1302.28003	-679.55542	-14.74705	1052.23779	-685.63147	233.61351	1064.71692	-879.23456	88.35651	1066.83960	-747.02216	-73.69897	875.95636	-658.76501	-19.13763	811.83447	-755.27899	-62.21458	759.07928	-754.47961	-35.83053	617.38342	-726.24304	71.90044	573.13239	-756.05579	-32.49892	568.71259	-695.86945	14.03852	525.01001	-790.25092	-43.24654	485.01263	-759.64117	-16.86200	205.93184	-649.52863	-68.77766	160.66710	-607.35706	-76.58497	156.99944	-547.12659	-29.66392	162.75249	-596.26514	24.06970	168.98706	-716.77496	69.46735	219.14653	-669.35962	53.03225	161.54817	-790.05103	42.80970	173.19060	-770.22223	275.83307	876.71490	-660.44501	214.40811	821.05530	-766.62952	268.14484	745.00873	-784.32660	251.48364	640.81567	-741.44226	145.46082	575.60870	-779.08838	249.32222	574.74756	-720.60858	208.00365	538.62299	-809.32751	260.45337	497.02850	-770.10712	230.98943	203.26035	-658.57898	299.09805	157.39816	-622.16699	307.20636	158.17738	-555.99451	255.18321	164.36882	-592.42651	220.15746	174.17848	-715.58282	157.36600	220.45551	-674.95874	174.99115	161.77055	-796.59100	182.06429	181.83998	-528.05597	304.05499	146.51532	-517.82892	-73.02139	143.21832	-875.88629	-78.55041	141.30716	-882.46637	296.13531	144.71918	
185	3.680	-582.18066	91.99009	1810.32458	-607.19434	-82.11195	1506.86584	-589.90417	270.58286	1517.10693	-566.34595	92.20498	1307.64685	-675.97192	-14.95340	1053.43311	-680.07361	233.63269	1065.10474	-874.33826	89.47232	1066.22314	-742.28528	-73.07961	876.23315	-654.07867	-18.94206	811.90027	-750.98853	-61.76541	759.69543	-751.17822	-35.27008	617.74860	-722.99847	72.45229	573.38806	-752.98053	-32.03028	569.13025	-693.04913	14.32786	524.91071	-787.81390	-42.60315	485.59491	-759.38037	-16.52261	206.14508	-649.52277	-68.67709	160.74834	-607.38550	-76.47552	157.05794	-546.97711	-29.67919	162.65334	-596.18359	24.16983	168.81828	-716.50970	69.70962	219.07697	-669.29523	53.17487	161.44154	-789.92102	43.14454	173.34187	-764.48334	276.10092	876.87939	-655.11072	214.61583	820.90521	-761.76685	268.33618	745.31104	-780.51874	251.77876	641.26129	-738.24280	145.63100	575.78967	-775.83405	249.50053	575.10986	-717.66351	208.04524	538.52997	-806.72961	260.59500	497.62555	-769.79919	230.89189	203.38596	-658.56036	299.08936	157.38155	-622.14520	307.27191	158.16449	-555.73517	255.19731	164.23041	-592.24066	220.05225	174.02066	-715.26349	157.09155	220.30513	-674.76080	175.03641	161.50682	-796.39471	181.95786	182.04999	-528.06964	304.02710	146.49400	-517.86743	-73.01620	143.18147	-875.90570	-78.57495	141.36362	-882.47717	296.09396	144.69902	
